<?xml version="1.0" encoding="utf-8"?>
<svg xmlns="http://www.w3.org/2000/svg">
    <defs>
        <symbol id="home" viewBox="0 0 24 24" fill="currentColor">
            <path d="m6 19h3v-6h6v6h3v-9l-6-4.5-6 4.5zm-2 2v-12l8-6 8 6v12h-7v-6h-2v6z"/>
        </symbol>
        <symbol id="import" viewBox="0 0 24 24" fill="currentColor">
            <path d="M14,12L10,8V11H2V13H10V16M20,18V6C20,4.89 19.1,4 18,4H6A2,2 0 0,0 4,6V9H6V6H18V18H6V15H4V18A2,2 0 0,0 6,20H18A2,2 0 0,0 20,18Z"/>
        </symbol>
        <symbol id="add" viewBox="0 0 24 24" fill="currentColor">
            <path d="M19,13H13V19H11V13H5V11H11V5H13V11H19V13Z"/>
        </symbol>
        <symbol id="remove" viewBox="0 0 24 24" fill="currentColor">
            <path d="M19,6.41L17.59,5L12,10.59L6.41,5L5,6.41L10.59,12L5,17.59L6.41,19L12,13.41L17.59,19L19,17.59L13.41,12L19,6.41Z"/>
        </symbol>
        <symbol id="arrow-down" viewBox="0 0 24 24" fill="currentColor">
            <path d="M11,4H13V16L18.5,10.5L19.92,11.92L12,19.84L4.08,11.92L5.5,10.5L11,16V4Z"/>
        </symbol>
        <symbol id="edit" viewBox="0 0 24 24" fill="currentColor">
            <path d="m5 19h1.425l9.775-9.775-1.425-1.425-9.775 9.775zm-2 2v-4.25l13.2-13.175c.2-.183.421-.325.663-.425.241-.1.495-.15.762-.15s.525.05.775.15.467.25.65.45l1.375 1.4c.2.183.346.4.438.65.091.25.137.5.137.75 0 .267-.046.521-.137.762-.092.242-.238.463-.438.663l-13.175 13.175h-4.25zm16-14.6-1.4-1.4zm-3.525 2.125-.7-.725 1.425 1.425z"/>
        </symbol>
        <symbol id="edit-all" viewBox="0 0 24 24" fill="currentColor">
            <path d="m5 3h7v2h-7v14h14v-7h2v7c0 1.097-.903 2-2 2h-14c-1.097 0-2-.903-2-2v-14c0-1.11.89-2 2-2zm3 13v-4.25l9.2-9.175c.2-.183.421-.325.662-.425.242-.1.496-.15.763-.15s.525.05.775.15.467.25.65.45l1.375 1.4c.2.183.346.4.438.65.091.25.137.5.137.75 0 .267-.046.521-.137.762-.092.242-.238.463-.438.663l-9.175 9.175zm7.775-9.2-5.775 5.775v1.425h1.425l5.775-5.775-.725-.7z"/>
        </symbol>
        <symbol id="item-add" viewBox="0 0 24 24" fill="currentColor">
            <path d="M12,20C7.59,20 4,16.41 4,12C4,7.59 7.59,4 12,4C16.41,4 20,7.59 20,12C20,16.41 16.41,20 12,20M12,2A10,10 0 0,0 2,12A10,10 0 0,0 12,22A10,10 0 0,0 22,12A10,10 0 0,0 12,2M13,7H11V11H7V13H11V17H13V13H17V11H13V7Z"/>
        </symbol>
        <symbol id="expand" viewBox="0 0 24 24" fill="currentColor">
            <path d="m20 5v-2h-16v2h7v12.17l-5.5-5.5-1.42 1.41 7.92 7.92 7.92-7.92-1.42-1.41-5.5 5.5v-12.17z"/>
        </symbol>
        <symbol id="search" viewBox="0 0 24 24" fill="currentColor">
            <path d="m19.6 21-6.3-6.3c-.5.4-1.075.717-1.725.95s-1.342.35-2.075.35c-1.817 0-3.354-.629-4.613-1.887-1.258-1.259-1.887-2.796-1.887-4.613s.629-3.354 1.888-4.612c1.258-1.259 2.795-1.888 4.612-1.888s3.354.629 4.613 1.888c1.258 1.258 1.887 2.795 1.887 4.612 0 .733-.117 1.425-.35 2.075s-.55 1.225-.95 1.725l6.3 6.3zm-10.1-7c1.25 0 2.312-.437 3.187-1.312s1.313-1.938 1.313-3.188-.438-2.312-1.313-3.187-1.937-1.313-3.187-1.313-2.313.438-3.188 1.313c-.874.875-1.312 1.937-1.312 3.187s.438 2.313 1.313 3.188 1.937 1.312 3.187 1.312z"/>
        </symbol>
    </defs>
</svg>
