<?xml version="1.0" encoding="utf-8"?>
<svg xmlns="http://www.w3.org/2000/svg">
    <defs>
        <symbol id="remove" viewBox="0 0 24 24" fill="currentColor">
            <path d="M19,6.41L17.59,5L12,10.59L6.41,5L5,6.41L10.59,12L5,17.59L6.41,19L12,13.41L17.59,19L19,17.59L13.41,12L19,6.41Z"/>
        </symbol>
        <symbol id="handle" viewBox="0 0 24 24" fill="currentColor">
            <path d="M21 11H3V9H21V11M21 13H3V15H21V13Z"/>
        </symbol>
        <symbol id="add" viewBox="0 0 24 24" fill="currentColor">
            <path d="M19,13H13V19H11V13H5V11H11V5H13V11H19V13Z"/>
        </symbol>
        <symbol id="arrow-up" viewBox="0 0 24 24" fill="currentColor">
            <path d="M13,20H11V8L5.5,13.5L4.08,12.08L12,4.16L19.92,12.08L18.5,13.5L13,8V20Z"/>
        </symbol>
        <symbol id="arrow-down" viewBox="0 0 24 24" fill="currentColor">
            <path d="M11,4H13V16L18.5,10.5L19.92,11.92L12,19.84L4.08,11.92L5.5,10.5L11,16V4Z"/>
        </symbol>
        <symbol id="reference-right" viewBox="0 0 22 22" fill="currentColor">
            <path d="M11,19l10,-8l-10,-8l0,16Z"/>
        </symbol>
    </defs>
</svg>
