<?xml version="1.0" encoding="utf-8"?>
<svg xmlns="http://www.w3.org/2000/svg">
    <defs>
        <symbol id="logo" viewBox="0 0 160 26" fill="currentColor">
            <g class="glyph">
                <path d="m-.001-0 .277-.7h.144l.275.7h-.172l-.132-.355c-.005-.014-.011-.029-.016-.045s-.011-.033-.016-.05c-.006-.017-.011-.033-.016-.05-.005-.016-.009-.031-.012-.045l.03-.001c-.004.017-.009.033-.013.049-.005.016-.01.032-.015.048-.006.015-.011.031-.017.047-.006.015-.011.032-.017.048l-.132.354h-.168zm.132-.134.053-.129.322.001.052.128z"
                      transform="matrix(21.122084855 0 0 20.7999892529 34.340969704 21.62)"/>
                <path d="m.272.011c-.046 0-.086-.012-.122-.036s-.064-.056-.085-.097c-.02-.042-.031-.089-.031-.143s.011-.101.031-.143c.021-.041.049-.074.085-.098s.077-.036.124-.036c.024 0 .047.004.069.011s.042.017.06.03.033.027.044.044c.011.016.018.033.02.05l-.038.009v-.342h.161v.74h-.149l-.009-.121.032.005c-.002.017-.009.033-.02.048s-.025.029-.042.04c-.017.012-.037.021-.06.028-.022.007-.046.011-.07.011zm.041-.133c.024 0 .046-.006.064-.018s.032-.029.042-.05.014-.046.014-.075-.004-.054-.014-.076c-.01-.021-.024-.038-.042-.05s-.04-.018-.064-.018-.046.006-.063.018c-.018.012-.032.029-.042.05-.01.022-.015.047-.015.076s.005.054.015.075.024.038.042.05c.017.012.039.018.063.018z"
                      transform="matrix(21.122084855 0 0 20.7999892529 48.097987016 21.62)"/>
                <path d="m.07-0v-.531h.152l.005.096-.021.001c.008-.018.018-.033.03-.046.013-.013.027-.024.042-.033.016-.009.032-.016.05-.021.017-.005.034-.007.051-.007.026 0 .05.004.071.012.022.008.04.021.056.038.016.018.029.042.038.072l-.025-.002.008-.016c.009-.016.02-.031.034-.043.013-.013.028-.024.045-.033s.034-.016.052-.021.035-.007.052-.007c.042 0 .077.008.105.025.028.016.049.041.064.073.014.032.021.072.021.119v.324h-.161v-.311c0-.021-.003-.039-.009-.053s-.015-.024-.026-.031c-.012-.007-.027-.011-.044-.011-.014 0-.027.003-.038.007-.012.004-.022.011-.031.019-.008.008-.014.018-.019.028-.005.011-.007.023-.007.036v.316h-.161v-.312c0-.02-.003-.037-.009-.051s-.015-.024-.027-.032c-.012-.007-.026-.011-.042-.011-.014 0-.027.003-.038.007-.012.004-.022.011-.03.019-.009.008-.015.017-.02.028-.005.01-.007.022-.007.035v.317h-.161z"
                      transform="matrix(21.122084855 0 0 20.7999892529 61.3857951454 21.62)"/>
                <path d="m.08-0v-.531h.16v.531zm.08-.636c-.03 0-.054-.007-.071-.021-.016-.015-.025-.035-.025-.062 0-.024.009-.044.026-.059.017-.016.04-.023.07-.023s.053.007.07.021c.017.015.025.035.025.061 0 .025-.008.045-.026.06-.017.015-.04.023-.069.023z"
                      transform="matrix(21.122084855 0 0 20.7999892529 81.184286395 21.62)"/>
                <path d="m.071-0v-.531h.152l.005.108-.032.012c.007-.024.02-.046.039-.066s.042-.035.069-.047.055-.018.084-.018c.04 0 .073.008.101.025.027.016.048.04.062.072s.021.072.021.119v.326h-.161v-.313c0-.021-.003-.039-.009-.053s-.015-.025-.028-.031c-.012-.007-.027-.011-.045-.01-.014 0-.027.002-.039.007-.012.004-.022.01-.031.019-.009.008-.015.017-.02.028s-.008.022-.008.035v.318h-.16z"
                      transform="matrix(21.122084855 0 0 20.7999892529 87.4012047924 21.62)"/>
                <path d="m.324.01c-.059 0-.11-.012-.153-.035-.043-.024-.077-.056-.101-.097s-.036-.088-.036-.141c0-.041.007-.078.02-.112.014-.034.032-.064.056-.089s.053-.044.086-.058c.033-.013.069-.02.108-.02.037 0 .071.007.102.02s.058.032.081.056c.022.024.04.052.052.085s.017.068.016.107l-.001.043h-.423l-.023-.09h.316l-.017.019v-.02c-.001-.017-.006-.032-.015-.045s-.021-.023-.036-.03-.031-.011-.05-.011c-.026 0-.048.005-.067.015-.018.011-.032.026-.041.046-.009.019-.014.043-.014.072s.006.055.019.076c.012.022.03.039.054.051.023.012.052.018.084.018.023 0 .043-.003.061-.01.018-.006.037-.018.057-.034l.075.106c-.021.018-.043.033-.066.044-.024.011-.047.02-.071.026-.025.005-.049.008-.073.008z"
                      transform="matrix(21.122084855 0 0 20.7999892529 100.2896746576 21.62)"/>
                <path d="m.071-0v-.531h.152l.007.173-.03-.033c.008-.029.021-.054.039-.077.019-.023.04-.041.065-.054s.051-.02.079-.02c.012 0 .023.001.033.003.011.002.02.004.029.007l-.044.177c-.007-.005-.017-.008-.029-.012-.013-.003-.026-.004-.039-.004-.015 0-.028.002-.041.007-.012.005-.023.013-.032.022s-.016.021-.021.033c-.005.013-.007.027-.007.043v.266h-.161z"
                      transform="matrix(21.122084855 0 0 20.7999892529 112.1391686872 21.62)"/>
                <path d="m.108-0v-.7h.046l.486.637-.012.026c-.001-.005-.001-.019-.001-.042-.001-.023-.001-.05-.001-.081-.001-.032-.001-.065-.001-.098-.001-.033-.001-.064-.001-.093-.001-.029-.001-.051-.001-.066v-.283h.05v.7h-.048l-.489-.641.014-.028c.001.013.001.032.002.056s.001.05.002.079c.001.028.001.056.002.083s.001.05.001.07c.001.019.001.032.001.037v.344h-.05z"
                      transform="matrix(21.122084855 0 0 20.7999892529 121.2146574286 21.62)"/>
                <path d="m.29.01c-.05 0-.094-.011-.133-.034s-.07-.054-.092-.095-.033-.088-.033-.142c0-.039.006-.075.019-.108.012-.033.029-.061.051-.086.022-.024.049-.043.08-.056s.064-.02.101-.02c.036 0 .068.006.097.018s.054.029.074.051c.02.023.035.049.045.08.01.03.014.063.013.1l-.001.027h-.442v-.046h.415l-.022.018v-.024c0-.027-.007-.053-.02-.08s-.032-.049-.059-.067-.06-.027-.101-.027c-.038 0-.072.008-.102.025-.029.017-.053.041-.07.073s-.025.072-.025.119c0 .045.008.085.025.119.017.033.041.059.072.078.032.018.071.027.117.027.025 0 .05-.004.076-.012s.055-.025.088-.052l.026.037c-.015.014-.032.027-.052.039-.02.011-.042.021-.067.028s-.051.01-.08.01z"
                      transform="matrix(21.122084855 0 0 20.7999892529 137.18281785 21.62)"/>
                <path d="m.3.01c-.052 0-.098-.012-.138-.035-.041-.023-.072-.056-.095-.097s-.035-.088-.035-.141c0-.052.012-.098.035-.139.023-.04.054-.072.095-.094.04-.023.086-.035.138-.035s.098.012.139.035c.04.022.071.054.094.094.023.041.034.087.034.139 0 .053-.011.1-.034.141s-.054.074-.095.097c-.04.023-.086.035-.138.035zm0-.05c.041 0 .078-.01.11-.029.033-.019.058-.046.076-.079.019-.033.028-.072.028-.115 0-.042-.009-.08-.028-.112-.018-.034-.043-.059-.075-.078-.033-.019-.07-.028-.111-.028-.042 0-.079.009-.111.028-.033.019-.058.044-.077.078-.018.032-.027.07-.027.112 0 .043.009.082.027.115.019.033.044.06.077.079.032.019.069.029.111.029z"
                      transform="matrix(21.122084855 0 0 20.7999892529 148.060610408 21.62)"/>
            </g>
            <path d="m16.668 18.211c-1.025 1.783-4.293 3.086-8.168 3.086-3.874 0-7.143-1.303-8.167-3.086-.217-.377-.333-.175-.333.012v2.616c0 2.534 3.806 5.161 8.5 5.161 4.695 0 8.5-2.627 8.5-5.161v-2.616c0-.187-.116-.389-.332-.012zm.013-6.684c-1.007 1.576-4.289 2.731-8.181 2.731s-7.174-1.155-8.181-2.731c-.208-.325-.319-.149-.319-.002v3.079c0 2.304 3.806 4.17 8.5 4.17 4.695 0 8.5-1.866 8.5-4.17v-3.079c0-.147-.111-.323-.319.002zm-8.181-8.527c-4.694 0-8.5 1.54-8.5 3.44v1.646c0 2.015 3.806 3.649 8.5 3.649 4.695 0 8.5-1.634 8.5-3.649v-1.646c0-1.9-3.805-3.44-8.5-3.44z"/>
            <path d="m24.575 8.09-5.549-2.471v-1.699l5.549-2.483v1.616l-3.329 1.437c-.161.072-.33.131-.507.179-.177.047-.318.079-.422.095.104.015.245.045.422.089.177.043.346.101.507.172l3.329 1.437z"/>
            <path d="m27.543 5.88-.061-2.435h1.207c.329 0 .591-.081.784-.244.193-.162.289-.378.289-.647 0-.277-.098-.495-.295-.653-.197-.159-.461-.238-.79-.238h-1.991v-1.663h1.87c.619 0 1.154.105 1.604.315.451.21.799.505 1.044.885s.368.831.368 1.354c0 .499-.105.935-.314 1.307s-.502.663-.88.873-.821.315-1.327.315v.831zm.579 2.851c-.274 0-.493-.077-.658-.231-.165-.155-.247-.355-.247-.6 0-.254.082-.456.247-.606.165-.151.384-.226.658-.226h.362c.273 0 .492.075.657.226.165.15.247.352.247.606 0 .253-.082.455-.247.606-.165.15-.388.225-.669.225z"/>
        </symbol>
    </defs>
</svg>
